# xmcd CD database file
#
# Track frame offsets:
#	182
#	53415
#	144275
#	225298
#	260036
#
# Disc length: 3505 seconds
#
# Revision: 0
# Processed by: cddbd v1.5PL3 Copyright (c) Steve Scherf et al.
# Submitted via: CDex 1.51
#
DISCID=350daf05
DTITLE=Simone Borowiak - Frau Rettich, die Czerni und ich CD1
DYEAR=2001
DGENRE=Lesung
TTITLE0=Frau Rettich, die Czerni und ich CD1
TTITLE1=Frau Rettich, die Czerni und ich CD1
TTITLE2=Frau Rettich, die Czerni und ich CD1
TTITLE3=Frau Rettich, die Czerni und ich CD1
TTITLE4=Frau Rettich, die Czerni und ich CD1
EXTD=YEAR: 2001
EXTT0=
EXTT1=
EXTT2=
EXTT3=
EXTT4=
PLAYORDER=
